<svg xmlns="http://www.w3.org/2000/svg" style="display:none">
  <symbol id="i-phone" viewBox="0 0 24 24">
    <path fill="currentColor" d="M6.6 10.8a12 12 0 0 0 5.6 5.6l1.9-1.9a1 1 0 0 1 1-.24c1.1.37 2.3.57 3.5.57a1 1 0 0 1 1 1V19a1 1 0 0 1-1 1A16 16 0 0 1 4 6a1 1 0 0 1 1-1h3.2a1 1 0 0 1 1 1c0 1.2.2 2.4.57 3.5a1 1 0 0 1-.24 1z"/>
  </symbol>
  <symbol id="i-pin" viewBox="0 0 24 24" fill="none" stroke="currentColor" stroke-width="1.75" stroke-linecap="round" stroke-linejoin="round">
    <path d="M12 21s7-5.6 7-11a7 7 0 1 0-14 0c0 5.4 7 11 7 11z"/><circle cx="12" cy="10" r="2.5"/>
  </symbol>
  <symbol id="i-star" viewBox="0 0 24 24">
    <path fill="currentColor" d="M12 3.5l2.6 5.27 5.82.85-4.21 4.1.99 5.8L12 17.77l-5.2 2.75.99-5.8-4.21-4.1 5.82-.85z"/>
  </symbol>
  <symbol id="i-check" viewBox="0 0 24 24" fill="none" stroke="currentColor" stroke-width="2" stroke-linecap="round" stroke-linejoin="round">
    <path d="M20 6L9 17l-5-5"/>
  </symbol>
  <symbol id="i-check-circle" viewBox="0 0 24 24" fill="none" stroke="currentColor" stroke-width="1.75" stroke-linecap="round" stroke-linejoin="round">
    <circle cx="12" cy="12" r="9"/><path d="M8.5 12.5l2.5 2.5 4.5-5"/>
  </symbol>
  <symbol id="i-arrow" viewBox="0 0 24 24" fill="none" stroke="currentColor" stroke-width="1.85" stroke-linecap="round" stroke-linejoin="round">
    <path d="M5 12h14"/><path d="M13 6l6 6-6 6"/>
  </symbol>
  <symbol id="i-clock" viewBox="0 0 24 24" fill="none" stroke="currentColor" stroke-width="1.75" stroke-linecap="round" stroke-linejoin="round">
    <circle cx="12" cy="12" r="8.5"/><path d="M12 7.5V12l3 2"/>
  </symbol>
  <symbol id="i-mail" viewBox="0 0 24 24" fill="none" stroke="currentColor" stroke-width="1.75" stroke-linecap="round" stroke-linejoin="round">
    <rect x="3.5" y="5.5" width="17" height="13" rx="2"/><path d="M4 7l8 6 8-6"/>
  </symbol>
  <symbol id="i-chevron" viewBox="0 0 24 24" fill="none" stroke="currentColor" stroke-width="2" stroke-linecap="round" stroke-linejoin="round">
    <path d="M6 9l6 6 6-6"/>
  </symbol>
  <symbol id="i-menu" viewBox="0 0 24 24" fill="none" stroke="currentColor" stroke-width="2" stroke-linecap="round">
    <path d="M4 7h16"/><path d="M4 12h16"/><path d="M4 17h16"/>
  </symbol>
  <symbol id="i-close" viewBox="0 0 24 24" fill="none" stroke="currentColor" stroke-width="2" stroke-linecap="round">
    <path d="M6 6l12 12"/><path d="M18 6L6 18"/>
  </symbol>
  <symbol id="i-globe" viewBox="0 0 24 24" fill="none" stroke="currentColor" stroke-width="1.75" stroke-linecap="round" stroke-linejoin="round">
    <circle cx="12" cy="12" r="8.5"/><path d="M3.5 12h17"/><path d="M12 3.5c2.6 2.4 2.6 14.6 0 17c-2.6-2.4-2.6-14.6 0-17z"/>
  </symbol>
  <symbol id="i-shield" viewBox="0 0 24 24" fill="none" stroke="currentColor" stroke-width="1.75" stroke-linecap="round" stroke-linejoin="round">
    <path d="M12 3l7 3v5c0 4.4-3 8.3-7 9.5-4-1.2-7-5.1-7-9.5V6z"/><path d="M9 12l2 2 4-4.5"/>
  </symbol>
  <symbol id="i-award" viewBox="0 0 24 24" fill="none" stroke="currentColor" stroke-width="1.75" stroke-linecap="round" stroke-linejoin="round">
    <circle cx="12" cy="9" r="5"/><path d="M9 13.4L8 21l4-2 4 2-1-7.6"/>
  </symbol>
  <symbol id="i-users" viewBox="0 0 24 24" fill="none" stroke="currentColor" stroke-width="1.75" stroke-linecap="round" stroke-linejoin="round">
    <circle cx="9" cy="9" r="3.2"/><path d="M3.6 19a5.4 5.4 0 0 1 10.8 0"/><path d="M16 6.3a3.2 3.2 0 0 1 0 6"/><path d="M17.2 13.4a5.4 5.4 0 0 1 3.2 5.6"/>
  </symbol>
  <symbol id="i-car" viewBox="0 0 24 24" fill="none" stroke="currentColor" stroke-width="1.75" stroke-linecap="round" stroke-linejoin="round">
    <path d="M3 13l2-5a2 2 0 0 1 2-1h10a2 2 0 0 1 2 1l2 5"/><path d="M5 16h14"/><circle cx="7.5" cy="16.5" r="1.5"/><circle cx="16.5" cy="16.5" r="1.5"/><path d="M7 10h10"/>
  </symbol>
  <symbol id="i-file" viewBox="0 0 24 24" fill="none" stroke="currentColor" stroke-width="1.75" stroke-linecap="round" stroke-linejoin="round">
    <path d="M7 3h7l5 5v13a1 1 0 0 1-1 1H7a1 1 0 0 1-1-1V4a1 1 0 0 1 1-1z"/><path d="M14 3v5h5"/><path d="M9 14l2 2l4-4"/>
  </symbol>
  <symbol id="i-stamp" viewBox="0 0 24 24" fill="none" stroke="currentColor" stroke-width="1.75" stroke-linecap="round" stroke-linejoin="round">
    <circle cx="12" cy="10" r="4"/><path d="M9.5 10l1.75 1.75L15 8"/><path d="M8 14l-2 6l6-2l6 2l-2-6"/>
  </symbol>
  <symbol id="i-mailbox" viewBox="0 0 24 24" fill="none" stroke="currentColor" stroke-width="1.75" stroke-linecap="round" stroke-linejoin="round">
    <path d="M4 10a4 4 0 0 1 8 0v8H4z"/><path d="M12 10h5a3 3 0 0 1 3 3v5h-8"/><path d="M7 10v3"/><path d="M16.5 13.5H18"/>
  </symbol>
  <symbol id="i-translate" viewBox="0 0 24 24" fill="none" stroke="currentColor" stroke-width="1.75" stroke-linecap="round" stroke-linejoin="round">
    <path d="M4 5h8"/><path d="M8 4.5V6c0 3-1.8 5.8-4.8 7.4"/><path d="M5 9c.9 2.3 2.8 4.2 4.8 5.2"/><path d="M12.4 19l3.6-8 3.6 8"/><path d="M13.6 16.4h4.8"/>
  </symbol>
  <symbol id="i-letter" viewBox="0 0 24 24" fill="none" stroke="currentColor" stroke-width="1.75" stroke-linecap="round" stroke-linejoin="round">
    <rect x="5" y="3.5" width="14" height="17" rx="2"/><path d="M8.5 8h7"/><path d="M8.5 12h7"/><path d="M8.5 16h4"/>
  </symbol>
  <symbol id="i-directions" viewBox="0 0 24 24" fill="none" stroke="currentColor" stroke-width="1.75" stroke-linecap="round" stroke-linejoin="round">
    <path d="M12 3l9 9-9 9-9-9z"/><path d="M9.5 13.8v-2.3a1.5 1.5 0 0 1 1.5-1.5h4"/><path d="M13 7.5l2.7 2.5L13 12.5"/>
  </symbol>
  <symbol id="i-building" viewBox="0 0 24 24" fill="none" stroke="currentColor" stroke-width="1.6" stroke-linecap="round" stroke-linejoin="round">
    <rect x="5" y="3.5" width="14" height="17" rx="1.5"/><path d="M9 7.5h2M13 7.5h2M9 11h2M13 11h2"/><path d="M10 20.5v-3h4v3"/>
  </symbol>
  <symbol id="i-quote" viewBox="0 0 24 24"><path fill="currentColor" d="M9 6c-3 .9-5 3.6-5 7v5h6v-6H7c0-2 1-3.3 3-4zm10 0c-3 .9-5 3.6-5 7v5h6v-6h-3c0-2 1-3.3 3-4z"/></symbol>
</svg>
